<?xml version="1.0" standalone="no"?>
<!DOCTYPE svg PUBLIC "-//W3C//DTD SVG 20010904//EN"
 "http://www.w3.org/TR/2001/REC-SVG-20010904/DTD/svg10.dtd">
<svg version="1.0" xmlns="http://www.w3.org/2000/svg"
 width="1024.000000pt" height="1024.000000pt" viewBox="0 0 1024.000000 1024.000000"
 preserveAspectRatio="xMidYMid meet">
<metadata>
Created by potrace 1.14, written by Peter Selinger 2001-2017
</metadata>
<g transform="translate(0.000000,1024.000000) scale(0.100000,-0.100000)"
fill="#000000" stroke="none">
<path d="M4849 10046 c-2 -2 -47 -7 -99 -10 -105 -8 -151 -12 -255 -26 -38 -5
-92 -12 -120 -16 -27 -3 -52 -8 -55 -9 -3 -2 -26 -6 -50 -10 -91 -13 -135 -22
-320 -66 -663 -158 -1326 -482 -1880 -918 -52 -41 -97 -77 -100 -81 -3 -3 -50
-44 -105 -91 -55 -48 -156 -142 -224 -210 -606 -605 -1032 -1327 -1269 -2149
-31 -105 -85 -334 -96 -400 -3 -19 -12 -71 -20 -115 -9 -44 -18 -102 -21 -130
-4 -27 -8 -61 -11 -75 -40 -246 -49 -781 -19 -1080 20 -194 26 -243 35 -295 5
-27 12 -66 15 -85 3 -19 8 -42 10 -50 2 -8 6 -33 10 -55 18 -132 103 -450 179
-670 204 -596 530 -1158 955 -1645 151 -173 438 -447 636 -608 160 -129 437
-318 610 -416 55 -31 107 -60 115 -65 27 -17 254 -129 335 -166 237 -109 593
-231 865 -296 52 -13 97 -24 100 -24 51 -13 334 -61 411 -70 31 -3 67 -8 80
-10 12 -3 54 -7 93 -10 39 -3 100 -8 136 -11 99 -9 538 -11 626 -3 44 4 117
10 164 13 47 4 99 8 115 11 50 8 108 16 155 21 34 4 244 43 315 58 329 72 701
193 943 306 35 17 65 30 68 30 7 0 253 123 324 163 172 94 482 297 609 397
176 138 248 198 346 290 191 178 404 405 520 554 17 22 48 62 70 90 151 190
336 482 473 746 176 340 348 810 417 1140 1 8 8 33 13 55 11 41 57 297 66 370
36 272 47 448 46 715 0 102 -3 208 -5 235 -17 232 -21 284 -29 330 -3 17 -8
56 -11 88 -4 32 -8 68 -11 80 -3 12 -6 33 -8 47 -8 50 -28 156 -41 215 -8 33
-17 74 -19 90 -3 17 -24 98 -47 180 -199 731 -555 1389 -1065 1975 -68 78
-377 385 -453 450 -495 425 -1034 740 -1616 943 -89 31 -202 66 -360 111 -54
16 -254 63 -295 70 -14 2 -36 7 -50 10 -14 3 -38 7 -55 10 -16 2 -46 7 -65 10
-19 3 -48 8 -65 11 -42 7 -255 32 -340 40 -74 7 -670 17 -676 11z"/>
</g>
</svg>
